<?xml version="1.0" encoding="UTF-8" standalone="no"?>
<svg
   version="1.1"
   viewBox="0 0 800 800"
   id="svg77"
   width="800"
   height="800"
   xmlns="http://www.w3.org/2000/svg"
   xmlns:svg="http://www.w3.org/2000/svg">
  <defs
     id="defs77" />
  <g
     id="g123"
     transform="translate(20.208454,79.228855)">
    <g
       stroke-width="2"
       fill="none"
       stroke-linecap="butt"
       id="g53"
       transform="translate(-147.14985,-180.3289)">
      <path
         stroke="#7c859b"
         vector-effect="non-scaling-stroke"
         d="m 463.4,306.28 q -33.64,3.3 -65.72,12.35 -0.45,0.12 -0.84,-0.12 -2.55,-1.56 -5.09,-3.13 -22.78,-14.1 -48.78,-18.14 -1.71,-0.27 -2.27,-0.58 -8.54,-4.78 -14.91,-7.47 -16.79,-7.09 -36.45,-7.48 -3.12,-0.06 -5.03,0.84 -2.58,1.23 -4.02,3.43 -1.43,2.17 -1.72,6.97 -2.04,33.33 6,65.52 1.67,6.7 3.36,12.73 0.21,0.74 -0.4,1.2 -19.81,15.11 -37.34,34.54 -13.54,15.01 -28.2,35.82 -6.65,9.45 -10.06,12.67 -10.33,9.79 -24.39,10.28 -11.65,0.4 -14.68,0.69 -8.14,0.78 -14.46,5.74 -10.29,8.07 -10.25,21.1 0.08,24.3 0.07,76.76 c 0,11.84 7.31,21.23 17.46,26.32 q 17.05,8.58 38.02,18.43 9.1,4.27 14.83,12.44 9.5,13.54 19.52,25.58 26.37,31.66 62.09,54.67 5.22,3.36 13.1,8.07 2.75,1.65 4.52,3.08 2.88,2.33 3.81,3.94 5.73,9.85 7.73,21.72 3.48,20.59 2.55,40.07"
         id="path1" />
      <path
         stroke="#7c859b"
         vector-effect="non-scaling-stroke"
         d="m 676.21,784.07 q 3.99,-20.93 12.7,-40.19 c 3.64,-8.05 8.74,-16.09 15.75,-21.61 q 5.64,-4.43 9.56,-6.58 41.55,-22.72 69.49,-59.96 19.13,-25.49 28.15,-54.35 7.37,-23.59 8.7,-49.68 a 0.49,0.49 0 0 1 0.63,-0.45 q 14.43,4.44 28.49,0.91 10.27,-2.58 17.86,-8.56 15.01,-11.84 16.35,-32.8 0.03,-0.51 0.5,-0.72 c 10.02,-4.53 17.83,-13.11 20.33,-23.79 2.98,-12.72 -0.65,-25.76 -10.22,-34.82 -11.68,-11.04 -29.25,-13.71 -43.59,-6.28 -13.67,7.07 -21.46,21.43 -19.36,36.59 2.61,18.84 18.77,31.45 37.52,31.1 a 0.81,0.81 0 0 1 0.82,0.91 c -1.56,12.46 -11.35,22.44 -23.59,25.29 q -12.49,2.91 -25.14,-1.86 a 0.74,0.74 0 0 1 -0.49,-0.67 Q 818.48,478.92 788.16,431.24 782.8,422.8 776.54,414.98 751.41,383.56 717.95,360.83 694.22,344.72 668.28,333.49 619.08,312.2 564.52,306.08"
         id="path3" />
      <path
         stroke="#f4c18f"
         vector-effect="non-scaling-stroke"
         d="m 564.52,306.08 q 7.48,-7.4 12.74,-17.3 c 12.93,-24.34 11.32,-51.33 -3.39,-74.4 q -6.73,-10.56 -16.51,-17.95"
         id="path4" />
      <path
         stroke="#fbe198"
         vector-effect="non-scaling-stroke"
         d="m 557.36,196.43 q -19.02,-14.69 -43.12,-15.09 -27.99,-0.46 -49.15,18.04 -18.9,16.51 -23.41,41.01 -4.58,24.82 6.76,46.68 3.58,6.91 6.2,10.49 3.61,4.92 8.76,8.72"
         id="path5" />
      <path
         stroke="#f7ab2f"
         vector-effect="non-scaling-stroke"
         d="m 557.36,196.43 q 1.77,4.58 1.92,8.69"
         id="path6" />
      <path
         stroke="#e08127"
         vector-effect="non-scaling-stroke"
         d="m 559.28,205.12 q -18.4,-17.78 -43.78,-18.83 -26.06,-1.07 -46.23,15.97 -15.09,12.75 -21.22,32.07 -3.36,10.58 -2.77,23.93 0.61,13.8 6.31,25.15 5.37,10.68 9.32,14.96 2.5,2.7 5.95,6.77 0.69,0.81 -0.08,1.06"
         id="path7" />
      <path
         stroke="#7f6e3c"
         vector-effect="non-scaling-stroke"
         d="m 466.78,306.2 -3.38,0.08"
         id="path8" />
      <path
         stroke="#5e7185"
         vector-effect="non-scaling-stroke"
         d="m 676.21,784.07 q -2.93,11.89 -4.78,27.16 -0.66,5.5 -4.96,7.45 -2.15,0.97 -8.03,0.98 -46.82,0.1 -53.05,0 -5.46,-0.08 -8.36,-4.68 -1.39,-2.23 -1.19,-6.5 0.14,-2.9 0.03,-8.09 a 0.64,0.64 0 0 0 -0.65,-0.63 c -3.13,0.08 -8.53,0.9 -11.55,-0.33 q -5.12,-2.08 -5.04,-8.43 0.08,-6.58 0.14,-12.97"
         id="path9" />
      <path
         stroke="#7c859b"
         vector-effect="non-scaling-stroke"
         d="m 578.77,778.03 0.08,-16.87 a 0.25,0.25 0 0 0 -0.28,-0.26 q -63.12,6.78 -126.23,-2.1 a 0.28,0.28 0 0 0 -0.32,0.28 l 0.18,17.67"
         id="path10" />
      <path
         stroke="#5e7185"
         vector-effect="non-scaling-stroke"
         d="m 452.2,776.75 q -0.01,7.38 -0.07,13.98 -0.08,9.53 -9.63,9.5 -0.62,-0.01 -31.25,-0.12 a 0.82,0.82 0 0 0 -0.82,0.82 q 0.04,7.29 0.06,8.42 0.11,4.6 -1.42,6.78 -3.12,4.46 -8.07,4.47 -50.54,0.15 -54.75,0.25 -5.33,0.14 -7.59,-0.73 -6.59,-2.52 -6.55,-9.11 0.09,-17.18 -0.26,-26.69"
         id="path11" />
      <path
         stroke="#784f33"
         vector-effect="non-scaling-stroke"
         d="m 564.52,306.08 -7.12,0.08"
         id="path12" />
      <path
         stroke="#d9611e"
         vector-effect="non-scaling-stroke"
         d="m 559.28,205.12 q 22.17,21.7 20.79,52.62 -1.26,28.52 -22.67,48.42"
         id="path13" />
      <path
         stroke="#61252b"
         vector-effect="non-scaling-stroke"
         d="m 557.4,306.16 -14.17,-0.83"
         id="path14" />
      <path
         stroke="#d9611e"
         vector-effect="non-scaling-stroke"
         d="m 543.23,305.33 q 6.66,-5.03 8.7,-6.9 12.73,-11.64 16.96,-27.75 3.09,-11.7 1.3,-26.1 c -2.32,-18.61 -14.33,-33.4 -29.88,-42.62 q -8.47,-5.02 -19.2,-6.31"
         id="path15" />
      <path
         stroke="#e08127"
         vector-effect="non-scaling-stroke"
         d="m 521.11,195.65 q -21.92,-3.01 -39.59,8.12 -19.84,12.49 -25.99,35.21 -2.69,9.89 -1.81,19.78 1.89,21.49 17.22,36.9 2.91,2.92 9.13,7.97 1.42,1.15 2.78,1.81 0.58,0.27 -0.04,0.41 l -0.78,0.16"
         id="path16" />
      <path
         stroke="#61252b"
         vector-effect="non-scaling-stroke"
         d="m 482.03,306.01 -15.25,0.19"
         id="path17" />
      <path
         stroke="#784f33"
         vector-effect="non-scaling-stroke"
         d="m 543.23,305.33 -42.97,-0.26"
         id="path18" />
      <path
         stroke="#dfc55d"
         vector-effect="non-scaling-stroke"
         d="m 528,203.81 q -3.97,-4.61 -12.62,-4.59"
         id="path19" />
      <path
         stroke="#f7ab2f"
         vector-effect="non-scaling-stroke"
         d="m 521.11,195.65 -5.73,3.57"
         id="path21" />
      <path
         stroke="#e6e466"
         vector-effect="non-scaling-stroke"
         d="m 515.38,199.22 q -12.3,-0.74 -22.43,3.49 c -14.16,5.91 -26.58,18.9 -31.27,33.85 q -5.36,17.09 0.36,34.16 c 1.85,5.54 5.42,11.91 10.6,16.18 q 0.25,0.2 5.91,5.31 2.6,2.34 7.02,4.3 0.3,0.13 0.51,-0.12 l 0.26,-0.32 q 0.23,-0.27 -0.08,-0.46 -4.11,-2.43 -5.44,-4.04 -2.87,-3.44 -9.39,-13.35 -5.91,-8.99 -6.71,-20.4 -1.62,-23.05 14.56,-38.74 15.18,-14.72 35.89,-13.67 c 2.81,0.14 5.79,0.91 8.61,1.6 q 3.01,0.74 4.22,-3.2"
         id="path22" />
      <path
         stroke="#f7ab2f"
         vector-effect="non-scaling-stroke"
         d="m 528,203.81 q 6.12,1.61 11.92,4.56 6.23,3.16 9.65,7.02 4.36,4.92 6.41,10.39 2.83,7.55 3.96,18.56 1.1,10.66 -0.59,18.8 -3.85,18.49 -19.12,30.04 -9.77,7.39 -21.67,9.27 -0.03,0 -8.11,0.53 -5.23,0.34 -10.19,2.09"
         id="path23" />
      <path
         stroke="#7f6e3c"
         vector-effect="non-scaling-stroke"
         d="m 500.26,305.07 -18.23,0.94"
         id="path24" />
      <path
         stroke="#e08127"
         vector-effect="non-scaling-stroke"
         d="m 508.27,225.95 q -7.75,1.73 -11.03,6.59 c -5.41,8.02 -2.79,17.89 6.17,21.72 q 5.68,2.44 9.19,3.7 3.05,1.1 3.93,1.85 1.93,1.64 2.14,4.17 c 0.32,3.89 -2.92,6.24 -6.45,6.69 q -7.63,0.96 -14.7,-2.23 -1.75,-0.79 -2.27,1.01 l -1.58,5.5 q -0.56,1.93 1.24,2.72 6.24,2.77 12.91,3.2 a 0.77,0.77 0 0 1 0.72,0.81 c -0.21,3.69 -0.22,9.82 5.52,8.64 4.53,-0.93 2.86,-6.5 2.58,-9.5 q -0.05,-0.54 0.47,-0.68 5.54,-1.54 6.6,-2.19 9.53,-5.81 8.04,-15.98 c -1.58,-10.73 -11.19,-13.21 -19.93,-16.42 -4.05,-1.49 -7.72,-4.65 -4.04,-8.54 4.08,-4.33 13.07,-2.3 17.03,0.37 q 2.23,1.51 2.8,-1.12 l 1.1,-5.16 q 0.61,-2.82 -2.21,-3.42 l -9.21,-1.97 a 0.94,0.93 7.4 0 1 -0.74,-0.95 c 0.14,-3.45 1.38,-7.4 -3.75,-7.84 q -3.97,-0.34 -4.01,4.12 -0.03,3.81 -0.05,4.35 -0.01,0.46 -0.47,0.56"
         id="path25" />
      <path
         stroke="#114243"
         vector-effect="non-scaling-stroke"
         d="m 316.18,304.06 c 0.03,-1.38 0.8,-2.78 1.64,-3.65 a 0.71,0.71 0 0 0 -0.33,-1.18 q -12.31,-3.3 -24.45,-3.2 a 1.62,1.62 0 0 0 -1.61,1.61 q -0.11,15.79 1.41,31.12 0.63,6.36 3.21,17.52 2,8.62 3.71,17.42 a 0.47,0.47 0 0 0 0.74,0.29 q 10.79,-7.97 22.14,-13.97 1.12,-0.59 0.73,-1.79 -3.24,-10 -5.37,-21.41 -2.1,-11.22 -1.82,-22.76"
         id="path26" />
      <path
         stroke="#285b4a"
         vector-effect="non-scaling-stroke"
         d="m 329.56,317.93 q 3.87,26.61 14.66,50.9 7.94,17.86 21.78,33.02 2.62,2.87 2.61,4.44 -0.01,1.61 -1.39,3.19 -2.42,2.77 -5.16,4"
         id="path27" />
      <path
         stroke="#457751"
         vector-effect="non-scaling-stroke"
         d="m 362.06,413.48 q -3.78,-0.01 -6.68,-3.6 -6.27,-7.76 -9.32,-11.93 -4.87,-6.64 -9.12,-15.31 -2.17,-4.42 -4.32,-8.3"
         id="path28" />
      <path
         stroke="#678869"
         vector-effect="non-scaling-stroke"
         d="m 332.62,374.34 -4.58,-12.15 a 0.67,0.67 0 0 0 -0.97,-0.34 q -45.94,26.79 -78.99,69.25 -7.89,10.14 -16.7,21.8 -6.06,8.01 -8.84,10.88 -14.81,15.25 -36.79,16.07 -0.22,0.01 -8.01,0.22 -5,0.13 -7.81,1.31 -6.19,2.59 -7.59,9.12 -0.34,1.6 -0.36,11.05 -0.05,33.51 -0.04,66.94"
         id="path29" />
      <path
         stroke="#285b4a"
         vector-effect="non-scaling-stroke"
         d="m 161.94,568.49 q 0.19,6.11 3.62,10.48 2.42,3.09 8.56,6.21 20.65,10.48 44.26,11.3 9.25,0.32 14.4,-1.67 c 9.51,-3.68 15.38,-12.48 17.3,-22.48"
         id="path30" />
      <path
         stroke="#457751"
         vector-effect="non-scaling-stroke"
         d="m 250.08,572.33 q 0.78,-1.22 1.76,-2.91 1.12,-1.93 2.04,-2.69 c 2.76,-2.28 6.62,-1.83 8.95,0.86 q 3.08,3.56 1.27,9.16"
         id="path31" />
      <path
         stroke="#285b4a"
         vector-effect="non-scaling-stroke"
         d="m 264.1,576.75 q -1.97,4.2 -3.82,8.36 -11.25,25.31 -38.98,24.58 -2.05,-0.06 -0.4,1.16 c 7.47,5.5 10.92,11.14 18.14,20.68 q 5.94,7.85 9.2,11.68 16.6,19.51 36.08,35.61 7.38,6.11 15.9,12 10.6,7.33 23.05,15.17 8.63,5.43 12.52,13.75 c 5.12,10.98 7.3,21.14 8.8,33.71 2.08,17.5 1.94,34.83 1.55,52.57 a 0.83,0.82 1 0 0 0.82,0.84 l 8.57,0.04"
         id="path32" />
      <path
         stroke="#678869"
         vector-effect="non-scaling-stroke"
         d="m 355.53,806.9 8.47,0.04"
         id="path33" />
      <path
         stroke="#285b4a"
         vector-effect="non-scaling-stroke"
         d="m 364,806.94 31.01,0.02 q 1.78,0 1.74,-1.77 -0.6,-29.03 6.17,-55.77"
         id="path34" />
      <path
         stroke="#114243"
         vector-effect="non-scaling-stroke"
         d="m 402.92,749.42 q 3.94,-6.47 6.53,-8.74 4.15,-3.62 10.06,-2.46 12.2,2.39 20.17,3.95 c 32.16,6.3 65.15,8.31 98.6,7.62 q 28.1,-0.57 56.24,-5.8 20.12,-3.74 40,-9.26 c 12.38,-3.44 24.18,-8.2 36.84,-14.02 q 13.56,-6.23 17.51,-8.19 30.51,-15.07 56.9,-37 8.19,-6.8 14.48,-13.55 43.71,-46.93 46.52,-112.46 1.03,-24.05 -3.89,-46.59 c -1.11,-5.09 -3.17,-11.86 -4.17,-15.41 q -2.13,-7.63 -3.6,-11.44 -10.55,-27.25 -24.08,-45.82 -16.55,-22.72 -38.27,-40.73 c -5.17,-4.28 -11.83,-9.93 -18.52,-14.2"
         id="path35" />
      <path
         stroke="#285b4a"
         vector-effect="non-scaling-stroke"
         d="m 714.24,375.32 q -8.57,-6.05 -17.46,-11.59 -4.18,-2.61 -8.77,-4.52"
         id="path36" />
      <path
         stroke="#457751"
         vector-effect="non-scaling-stroke"
         d="m 688.01,359.21 q -6.08,-3.35 -12.33,-6.62 -6.91,-3.62 -13.23,-5.76 c -5.53,-1.87 -9.24,-3.83 -15.06,-6.48 q -3.79,-1.73 -16.67,-5.89 -9.6,-3.1 -16.96,-5.02 -61.94,-16.12 -125.84,-12.22 -7.96,0.49 -14.26,1.77 -7.95,1.61 -14.22,2.28 -9.24,0.99 -19.81,2.78 -19.36,3.29 -28.17,5.02 a 0.39,0.38 -30.7 0 0 -0.18,0.68 l 11,9.09 q 0.4,0.33 0.86,0.09 5.48,-2.79 19.89,-5.22 71.69,-12.13 142.38,-0.17 8.2,1.38 18.59,3.18 4.02,0.69 5.87,1.92 c 4.8,3.18 3.2,10.11 -2.25,11.37 q -1.11,0.25 -4.19,-0.38 -83.66,-17.29 -167.81,-1.83 a 0.41,0.41 0 0 0 -0.18,0.72 q 4.11,3.24 6.2,5.19 c 5.37,5 -1.41,14.3 -7.33,10.75 q -2.22,-1.34 -9.56,-7.43 c -8.91,-7.41 -19.17,-15 -27.46,-20.99 q -9.85,-7.13 -23.08,-14.19 -12.22,-6.52 -26.1,-9.84 c -6.28,-1.49 -12.57,-1.64 -18.97,-1.37 a 0.42,0.41 -4.5 0 0 -0.4,0.46 l 0.82,6.83"
         id="path37" />
      <path
         stroke="#6dc05c"
         vector-effect="non-scaling-stroke"
         d="m 688.01,359.21 q 2.99,22.05 -0.1,44.02 -2.93,20.89 -10.01,40.42 -15.55,42.95 -45.2,79.55 -17.84,22.02 -37.75,38.99 -38.56,32.86 -85.59,54.15 -28.87,13.07 -62.33,22.42 -67.91,18.96 -134.93,16.08 -12.62,-0.54 -24.81,-2.84 -12.86,-2.43 -23.72,-8.92 c -7.84,-4.69 -16.84,-12.43 -23.14,-20.64 q -2.58,-3.35 -5.59,-6.57 a 0.49,0.49 0 0 1 0.21,-0.8 q 4.24,-1.33 8.99,-3.35 14.79,-6.3 18.57,-22.35 1.47,-6.26 1.49,-12.62"
         id="path38" />
      <path
         stroke="#6dc05c"
         vector-effect="non-scaling-stroke"
         d="m 250.08,572.33 q -26.03,13.49 -54.57,10.09 -14.37,-1.71 -26.51,-8.43"
         id="path39" />
      <path
         stroke="#aced7b"
         vector-effect="non-scaling-stroke"
         d="m 169,573.99 q 0.43,-2 0.26,-4.02 -0.32,-3.94 -0.32,-3.97 -0.14,-15.22 0.39,-30.58 c 0.31,-9.29 0.2,-17.57 0.31,-25.6 q 0.09,-7.18 0.95,-9.7 4.23,-12.52 17.15,-13.19 10.36,-0.54 16.76,-0.71 8.2,-0.21 12.8,-1.44 11.22,-3 17.85,-13.11 3.68,-5.62 10.01,-16.54 12.12,-20.91 30.63,-40.58 21.23,-22.57 47.74,-40.51 1.53,-1.04 5.17,-3.05 a 1.24,1.23 -22.4 0 1 1.79,0.74 q 0.84,2.99 2.13,2.61"
         id="path40" />
      <path
         stroke="#6dc05c"
         vector-effect="non-scaling-stroke"
         d="m 362.06,413.48 q 1.37,1.76 4.56,1.84 c 4.56,0.11 7.9,0.39 10.77,-1.59 1.94,-1.33 0.99,-4.14 -0.25,-5.44 -9.96,-10.36 -17.67,-21.78 -24.12,-34.59 q -11.18,-22.21 -18.85,-45.56 -1.4,-4.24 -4.61,-10.21"
         id="path41" />
      <path
         stroke="#8fd174"
         vector-effect="non-scaling-stroke"
         d="m 169,573.99 -7.06,-5.5"
         id="path42" />
      <path
         stroke="#398b4e"
         vector-effect="non-scaling-stroke"
         d="m 714.24,375.32 q 2.14,4.09 5.52,7.11 4.03,3.58 4.13,3.68 18.68,18.7 33.51,40.51 20.86,30.7 29.48,67.35 7.42,31.53 2.5,63.81 -1.61,10.52 -4.34,19.48 -9.3,30.51 -28.32,54.48 -27.35,34.47 -65.28,55.7 -25.65,14.36 -51.6,23.36 -43.84,15.2 -93.86,20.7 -9.66,1.06 -19.92,1.54 -57.82,2.71 -113.34,-7.22 -4.29,-0.76 -9.98,-2.38 a 0.78,0.78 0 0 0 -0.99,0.79 l 1.17,25.19"
         id="path43" />
      <path
         stroke="#8fd174"
         vector-effect="non-scaling-stroke"
         d="m 364,806.94 q -0.23,-5.12 -0.55,-19.94 -0.44,-20.02 -3,-44.69 -1.22,-11.78 -1.69,-14.56 -1.21,-7.25 -3.69,-14.23 -0.75,-2.14 -2.88,-3.71 a 2.24,2.21 31.9 0 0 -3.3,0.75 q -0.49,0.94 -0.4,2.94 0.39,8.86 1.19,17.69 1.13,12.57 1.46,17.65 1.94,29.05 4.39,58.06"
         id="path44" />
      <path
         stroke="#7c859b"
         vector-effect="non-scaling-stroke"
         d="m 867.62,467.68 q 4.87,-0.98 7.6,2.83 0.69,0.96 3.49,9.54 0.39,1.21 3.6,13.55 a 0.54,0.53 -28.3 0 0 0.88,0.26 q 8.54,-7.66 7.79,-18.19 c -0.5,-6.9 -4.94,-13.81 -10.89,-16.73 q -12.84,-6.3 -23.98,0.24 c -12.83,7.53 -13.42,24.31 -2.58,33.72 q 6.03,5.24 14.54,5.69 a 0.85,0.85 0 0 0 0.89,-0.99 c -1.25,-7.28 -3.99,-13.86 -6.02,-21.22 q -0.92,-3.33 0.11,-5.19 1.6,-2.92 4.57,-3.51"
         id="path45" />
      <path
         stroke="#285b4a"
         vector-effect="non-scaling-stroke"
         d="m 614.57,806.17 9.99,0.01"
         id="path46" />
      <path
         stroke="#114243"
         vector-effect="non-scaling-stroke"
         d="m 624.56,806.18 32.61,0.01 a 0.95,0.95 0 0 0 0.94,-0.81 q 3.37,-24.33 10.48,-47.77 4.13,-13.64 10.59,-24.23 0.59,-0.98 -0.43,-0.47 -18.88,9.54 -40.87,15.2 -19.85,5.11 -30.31,7.31 a 0.38,0.37 -8.6 0 0 -0.3,0.4 c 1.05,10.73 1.82,22.31 1.66,33.86 q -0.08,6.36 0.15,15.34 0.04,1.31 1.35,1.28 l 4.14,-0.13"
         id="path47" />
      <path
         stroke="#398b4e"
         vector-effect="non-scaling-stroke"
         d="m 624.56,806.18 2.17,-51.83 q 0.06,-1.42 -1.26,-0.88 -3.07,1.24 -7.79,1.38 -0.5,0.01 -0.77,0.43 -1.05,1.7 -1.19,3.97 -0.7,10.99 -0.82,28.05 -0.01,2.45 -0.34,9.42 -0.22,4.78 0.01,9.45"
         id="path48" />
      <path
         stroke="#114243"
         vector-effect="non-scaling-stroke"
         d="m 437.6,755.69 -18.62,-3.99 q -2.32,-0.5 -2.95,1.77 -4.36,15.69 -5.17,32.43 a 0.29,0.29 0 0 0 0.29,0.3 h 26.84 a 0.55,0.55 0 0 0 0.55,-0.55 v -28.8 a 1.19,1.19 0 0 0 -0.94,-1.16"
         id="path49" />
      <path
         stroke="#114243"
         vector-effect="non-scaling-stroke"
         d="m 595.3646,759.2649 a 1.12,1.12 0 0 0 -1.1239,-1.116 l -0.7,0.002 a 1.12,1.12 0 0 0 -1.116,1.1239 l 0.0907,25.9799 a 1.12,1.12 0 0 0 1.1239,1.116 l 0.7,-0.002 a 1.12,1.12 0 0 0 1.116,-1.1239 l -0.0907,-25.9799"
         id="path50" />
      <path
         stroke="#457751"
         vector-effect="non-scaling-stroke"
         d="m 283.461,514.6849 a 27.66,16.79 88.9 0 0 16.2559,-27.9772 27.66,16.79 88.9 0 0 -17.3179,-27.3326 27.66,16.79 88.9 0 0 -16.2559,27.9772 27.66,16.79 88.9 0 0 17.3179,27.3326"
         id="path51" />
      <path
         stroke="#c5c175"
         vector-effect="non-scaling-stroke"
         d="m 331.45,558.42 a 28,28 0 0 0 -28,-28 28,28 0 0 0 -28,28 28,28 0 0 0 28,28 28,28 0 0 0 28,-28"
         id="path52" />
      <path
         stroke="#7c859b"
         vector-effect="non-scaling-stroke"
         d="m 272.7549,477.7127 a 5.72,3.18 98.8 0 0 4.0177,-5.1662 5.72,3.18 98.8 0 0 -2.2675,-6.1392 5.72,3.18 98.8 0 0 -4.0177,5.1662 5.72,3.18 98.8 0 0 2.2675,6.1392"
         id="path53" />
    </g>
    <path
       fill="#feca38"
       d="m 410.21015,16.101104 q 1.77,4.58 1.92,8.69 -18.4,-17.7799997 -43.78,-18.8299997 -26.06,-1.07 -46.23,15.9699997 -15.09,12.75 -21.22,32.07 -3.36,10.58 -2.77,23.93 0.61,13.8 6.31,25.149996 5.37,10.68 9.32,14.96 2.5,2.7 5.95,6.77 0.69,0.81 -0.08,1.06 l -3.38,0.08 q -5.15,-3.8 -8.76,-8.72 -2.62,-3.58 -6.2,-10.49 -11.34,-21.859996 -6.76,-46.679996 4.51,-24.5 23.41,-41.01 21.16,-18.49999965 49.15,-18.0399997 24.1,0.4 43.12,15.0899997 z"
       id="path55" />
    <path
       fill="#c13716"
       d="m 412.13015,24.791104 q 22.17,21.7 20.79,52.62 -1.26,28.519996 -22.67,48.419996 l -14.17,-0.83 q 6.66,-5.03 8.7,-6.9 12.73,-11.64 16.96,-27.749996 3.09,-11.7 1.3,-26.1 c -2.32,-18.61 -14.33,-33.4 -29.88,-42.62 q -8.47,-5.02 -19.2,-6.31 -21.92,-3.01 -39.59,8.12 -19.84,12.49 -25.99,35.21 -2.69,9.89 -1.81,19.78 1.89,21.49 17.22,36.899996 2.91,2.92 9.13,7.97 1.42,1.15 2.78,1.81 0.58,0.27 -0.04,0.41 l -0.78,0.16 -15.25,0.19 q 0.77,-0.25 0.08,-1.06 -3.45,-4.07 -5.95,-6.77 -3.95,-4.28 -9.32,-14.96 -5.7,-11.349996 -6.31,-25.149996 -0.59,-13.35 2.77,-23.93 6.13,-19.32 21.22,-32.07 20.17,-17.0399997 46.23,-15.9699997 25.38,1.05 43.78,18.8299997 z"
       id="path56" />
    <path
       fill="#feca38"
       d="m 373.96015,15.321104 -5.73,3.57 q -12.3,-0.74 -22.43,3.49 c -14.16,5.91 -26.58,18.9 -31.27,33.85 q -5.36,17.09 0.36,34.16 c 1.85,5.54 5.42,11.909996 10.6,16.179996 q 0.25,0.2 5.91,5.31 2.6,2.34 7.02,4.3 0.3,0.13 0.51,-0.12 l 0.26,-0.32 q 0.23,-0.27 -0.08,-0.46 -4.11,-2.43 -5.44,-4.04 -2.87,-3.44 -9.39,-13.349996 -5.91,-8.99 -6.71,-20.4 -1.62,-23.05 14.56,-38.74 15.18,-14.72 35.89,-13.67 c 2.81,0.14 5.79,0.91 8.61,1.6 q 3.01,0.74 4.22,-3.2 6.12,1.61 11.92,4.56 6.23,3.16 9.65,7.02 4.36,4.92 6.41,10.39 2.83,7.55 3.96,18.56 1.1,10.66 -0.59,18.8 -3.85,18.489996 -19.12,30.039996 -9.77,7.39 -21.67,9.27 -0.03,0 -8.11,0.53 -5.23,0.34 -10.19,2.09 l -18.23,0.94 0.78,-0.16 q 0.62,-0.14 0.04,-0.41 -1.36,-0.66 -2.78,-1.81 -6.22,-5.05 -9.13,-7.97 -15.33,-15.409996 -17.22,-36.899996 -0.88,-9.89 1.81,-19.78 6.15,-22.72 25.99,-35.21 17.67,-11.13 39.59,-8.12 z m -12.84,30.3 q -7.75,1.73 -11.03,6.59 c -5.41,8.02 -2.79,17.89 6.17,21.72 q 5.68,2.44 9.19,3.7 3.05,1.1 3.93,1.85 1.93,1.64 2.14,4.17 c 0.32,3.89 -2.92,6.24 -6.45,6.69 q -7.63,0.96 -14.7,-2.23 -1.75,-0.79 -2.27,1.01 l -1.58,5.5 q -0.56,1.93 1.24,2.72 6.24,2.769996 12.91,3.199996 a 0.77,0.77 0 0 1 0.72,0.81 c -0.21,3.69 -0.22,9.82 5.52,8.64 4.53,-0.93 2.86,-6.5 2.58,-9.5 q -0.05,-0.539996 0.47,-0.679996 5.54,-1.54 6.6,-2.19 9.53,-5.81 8.04,-15.98 c -1.58,-10.73 -11.19,-13.21 -19.93,-16.42 -4.05,-1.49 -7.72,-4.65 -4.04,-8.54 4.08,-4.33 13.07,-2.3 17.03,0.37 q 2.23,1.51 2.8,-1.12 l 1.1,-5.16 q 0.61,-2.82 -2.21,-3.42 l -9.21,-1.97 a 0.94,0.93 7.4 0 1 -0.74,-0.95 c 0.14,-3.45 1.38,-7.4 -3.75,-7.84 q -3.97,-0.34 -4.01,4.12 -0.03,3.81 -0.05,4.35 -0.01,0.46 -0.47,0.56 z"
       id="path57" />
    <path
       fill="#f08b26"
       d="m 396.08015,125.0011 -59.78881,0.80224 c 3.30667,-1.16667 23.52214,-2.92557 27.00881,-3.15224 5.38667,-0.35333 8.09,-0.53 8.11,-0.53 7.93333,-1.25333 15.15667,-4.34333 21.67,-9.27 10.18,-7.7 16.55333,-17.713326 19.12,-30.039996 1.12667,-5.42667 1.32333,-11.69333 0.59,-18.8 -0.75333,-7.34 -2.07333,-13.52667 -3.96,-18.56 -1.36667,-3.64667 -3.50333,-7.11 -6.41,-10.39 -2.28,-2.57333 -5.49667,-4.91333 -9.65,-7.02 -3.86667,-1.96667 -7.84,-3.48667 -11.92,-4.56 -2.64667,-3.07333 -6.85333,-4.60333 -12.62,-4.59 l 5.73,-3.57 c 7.15333,0.86 13.55333,2.96333 19.2,6.31 15.55,9.22 27.56,24.01 29.88,42.62 1.19333,9.6 0.76,18.3 -1.3,26.1 -2.82,10.739996 -8.47333,19.989996 -16.96,27.749996 -1.36,1.24667 -4.26,3.54667 -8.7,6.9 z"
       id="path58" />
    <path
       fill="#f08b26"
       d="m 410.21015,16.101104 q 9.78,7.39 16.51,17.95 c 14.71,23.07 16.32,50.06 3.39,74.399996 q -5.26,9.9 -12.74,17.3 l -7.12,0.08 q 21.41,-19.9 22.67,-48.419996 1.38,-30.92 -20.79,-52.62 -0.15,-4.11 -1.92,-8.69 z"
       id="path59" />
    <path
       fill="#cefe93"
       d="m 368.23015,18.891104 q 8.65,-0.02 12.62,4.59 -1.21,3.94 -4.22,3.2 c -2.82,-0.69 -5.8,-1.46 -8.61,-1.6 q -20.71,-1.05 -35.89,13.67 -16.18,15.69 -14.56,38.74 0.8,11.41 6.71,20.4 6.52,9.909996 9.39,13.349996 1.33,1.61 5.44,4.04 0.31,0.19 0.08,0.46 l -0.26,0.32 q -0.21,0.25 -0.51,0.12 -4.42,-1.96 -7.02,-4.3 -5.66,-5.11 -5.91,-5.31 c -5.18,-4.27 -8.75,-10.639996 -10.6,-16.179996 q -5.72,-17.07 -0.36,-34.16 c 4.69,-14.95 17.11,-27.94 31.27,-33.85 q 10.13,-4.23 22.43,-3.49 z"
       id="path60" />
    <path
       fill="#c13716"
       d="m 361.59015,45.061104 q 0.02,-0.54 0.05,-4.35 0.04,-4.46 4.01,-4.12 c 5.13,0.44 3.89,4.39 3.75,7.84 a 0.94,0.93 7.4 0 0 0.74,0.95 l 9.21,1.97 q 2.82,0.6 2.21,3.42 l -1.1,5.16 q -0.57,2.63 -2.8,1.12 c -3.96,-2.67 -12.95,-4.7 -17.03,-0.37 -3.68,3.89 -0.01,7.05 4.04,8.54 8.74,3.21 18.35,5.69 19.93,16.42 q 1.49,10.17 -8.04,15.98 -1.06,0.65 -6.6,2.19 -0.52,0.14 -0.47,0.679996 c 0.28,3 1.95,8.57 -2.58,9.5 -5.74,1.18 -5.73,-4.95 -5.52,-8.64 a 0.77,0.77 0 0 0 -0.72,-0.81 q -6.67,-0.43 -12.91,-3.199996 -1.8,-0.79 -1.24,-2.72 l 1.58,-5.5 q 0.52,-1.8 2.27,-1.01 7.07,3.19 14.7,2.23 c 3.53,-0.45 6.77,-2.8 6.45,-6.69 q -0.21,-2.53 -2.14,-4.17 -0.88,-0.75 -3.93,-1.85 -3.51,-1.26 -9.19,-3.7 c -8.96,-3.83 -11.58,-13.7 -6.17,-21.72 q 3.28,-4.86 11.03,-6.59 0.46,-0.1 0.47,-0.56 z"
       id="path61" />
    <path
       fill="#00123f"
       d="m 316.25015,125.9511 3.38,-0.08 15.25,-0.19 18.23,-0.94 42.97,0.26 14.17,0.83 7.12,-0.08 q 54.56,6.12 103.76,27.41 25.94,11.23 49.67,27.34 33.46,22.73 58.59,54.15 6.26,7.82 11.62,16.26 30.32,47.68 32.51,105.31 a 0.74,0.74 0 0 0 0.49,0.67 q 12.65,4.77 25.14,1.86 c 12.24,-2.85 22.03,-12.83 23.59,-25.29 a 0.81,0.81 0 0 0 -0.82,-0.91 c -18.75,0.35 -34.91,-12.26 -37.52,-31.1 -2.1,-15.16 5.69,-29.52 19.36,-36.59 14.34,-7.43 31.91,-4.76 43.59,6.28 9.57,9.06 13.2,22.1 10.22,34.82 -2.5,10.68 -10.31,19.26 -20.33,23.79 q -0.47,0.21 -0.5,0.72 -1.34,20.96 -16.35,32.8 -7.59,5.98 -17.86,8.56 -14.06,3.53 -28.49,-0.91 a 0.49,0.49 0 0 0 -0.63,0.45 q -1.33,26.09 -8.7,49.68 -9.02,28.86 -28.15,54.35 -27.94,37.24 -69.49,59.96 -3.92,2.15 -9.56,6.58 c -7.01,5.52 -12.11,13.56 -15.75,21.61 q -8.71,19.26 -12.7,40.19 -2.93,11.89 -4.78,27.16 -0.66,5.5 -4.96,7.45 -2.15,0.97 -8.03,0.98 -46.82,0.1 -53.05,0 -5.46,-0.08 -8.36,-4.68 -1.39,-2.23 -1.19,-6.5 0.14,-2.9 0.03,-8.09 a 0.64,0.64 0 0 0 -0.65,-0.63 c -3.13,0.08 -8.53,0.9 -11.55,-0.33 q -5.12,-2.08 -5.04,-8.43 0.08,-6.58 0.14,-12.97 l 0.08,-16.87 a 0.25,0.25 0 0 0 -0.28,-0.26 q -63.12,6.78 -126.23,-2.1 a 0.28,0.28 0 0 0 -0.32,0.28 l 0.18,17.67 q -0.01,7.38 -0.07,13.98 -0.08,9.53 -9.63,9.5 -0.62,-0.01 -31.25,-0.12 a 0.82,0.82 0 0 0 -0.82,0.82 q 0.04,7.29 0.06,8.42 0.11,4.6 -1.42,6.78 -3.12,4.46 -8.07,4.47 -50.54,0.15 -54.75,0.25 -5.33,0.14 -7.59,-0.73 -6.59,-2.52 -6.55,-9.11 0.09,-17.18 -0.26,-26.69 0.93,-19.48 -2.55,-40.07 -2,-11.87 -7.73,-21.72 -0.93,-1.61 -3.81,-3.94 -1.77,-1.43 -4.52,-3.08 -7.88,-4.71 -13.1,-8.07 -35.72,-23.01 -62.089998,-54.67 -10.02,-12.04 -19.52,-25.58 -5.73,-8.17 -14.83,-12.44 -20.97,-9.85 -38.02,-18.43 c -10.1500004,-5.09 -17.4600004,-14.48 -17.4600004,-26.32 q 0.01,-52.46 -0.07,-76.76 -0.04,-13.03 10.2500004,-21.1 6.32,-4.96 14.46,-5.74 3.03,-0.29 14.68,-0.69 14.06,-0.49 24.39,-10.28 3.41,-3.22 10.06,-12.67 14.66,-20.81 28.199998,-35.82 17.53,-19.43 37.34,-34.54 0.61,-0.46 0.4,-1.2 -1.69,-6.03 -3.36,-12.73 -8.04,-32.19 -6,-65.52 0.29,-4.8 1.72,-6.97 1.44,-2.2 4.02,-3.43 1.91,-0.9 5.03,-0.84 19.66,0.39 36.45,7.48 6.37,2.69 14.91,7.47 0.56,0.31 2.27,0.58 26,4.04 48.78,18.14 2.54,1.57 5.09,3.13 0.39,0.24 0.84,0.12 32.08,-9.05 65.72,-12.35 z m -147.22,-2.22 c 0.03,-1.38 0.8,-2.78 1.64,-3.65 a 0.71,0.71 0 0 0 -0.33,-1.18 q -12.31,-3.3 -24.45,-3.2 a 1.62,1.62 0 0 0 -1.61,1.61 q -0.11,15.79 1.41,31.12 0.63,6.36 3.21,17.52 2,8.62 3.71,17.42 a 0.47,0.47 0 0 0 0.74,0.29 q 10.79,-7.97 22.14,-13.97 1.12,-0.59 0.73,-1.79 -3.24,-10 -5.37,-21.41 -2.1,-11.22 -1.82,-22.76 z m 13.38,13.87 q 3.87,26.61 14.66,50.9 7.94,17.86 21.78,33.02 2.62,2.87 2.61,4.44 -0.01,1.61 -1.39,3.19 -2.42,2.77 -5.16,4 -3.78,-0.01 -6.68,-3.6 -6.27,-7.76 -9.32,-11.93 -4.87,-6.64 -9.12,-15.31 -2.17,-4.42 -4.32,-8.3 l -4.58,-12.15 a 0.67,0.67 0 0 0 -0.97,-0.34 q -45.94,26.79 -78.99,69.25 -7.889998,10.14 -16.699998,21.8 -6.06,8.01 -8.84,10.88 -14.81,15.25 -36.79,16.07 -0.22,0.01 -8.01,0.22 -5,0.13 -7.81,1.31 -6.19,2.59 -7.59,9.12 -0.34,1.6 -0.36,11.05 -0.05,33.51 -0.04,66.94 0.19,6.11 3.62,10.48 2.42,3.09 8.56,6.21 20.65,10.48 44.26,11.3 9.25,0.32 14.4,-1.67 c 9.51,-3.68 15.379998,-12.48 17.299998,-22.48 q 0.78,-1.22 1.76,-2.91 1.12,-1.93 2.04,-2.69 c 2.76,-2.28 6.62,-1.83 8.95,0.86 q 3.08,3.56 1.27,9.16 -1.97,4.2 -3.82,8.36 -11.25,25.31 -38.979998,24.58 -2.05,-0.06 -0.4,1.16 c 7.47,5.5 10.92,11.14 18.14,20.68 q 5.94,7.85 9.199998,11.68 16.6,19.51 36.08,35.61 7.38,6.11 15.9,12 10.6,7.33 23.05,15.17 8.63,5.43 12.52,13.75 c 5.12,10.98 7.3,21.14 8.8,33.71 2.08,17.5 1.94,34.83 1.55,52.57 a 0.83,0.82 1 0 0 0.82,0.84 l 8.57,0.04 8.47,0.04 31.01,0.02 q 1.78,0 1.74,-1.77 -0.6,-29.03 6.17,-55.77 3.94,-6.47 6.53,-8.74 4.15,-3.62 10.06,-2.46 12.2,2.39 20.17,3.95 c 32.16,6.3 65.15,8.31 98.6,7.62 q 28.1,-0.57 56.24,-5.8 20.12,-3.74 40,-9.26 c 12.38,-3.44 24.18,-8.2 36.84,-14.02 q 13.56,-6.23 17.51,-8.19 30.51,-15.07 56.9,-37 8.19,-6.8 14.48,-13.55 43.71,-46.93 46.52,-112.46 1.03,-24.05 -3.89,-46.59 c -1.11,-5.09 -3.17,-11.86 -4.17,-15.41 q -2.13,-7.63 -3.6,-11.44 -10.55,-27.25 -24.08,-45.82 -16.55,-22.72 -38.27,-40.73 c -5.17,-4.28 -11.83,-9.93 -18.52,-14.2 q -8.57,-6.05 -17.46,-11.59 -4.18,-2.61 -8.77,-4.52 -6.08,-3.35 -12.33,-6.62 -6.91,-3.62 -13.23,-5.76 c -5.53,-1.87 -9.24,-3.83 -15.06,-6.48 q -3.79,-1.73 -16.67,-5.89 -9.6,-3.1 -16.96,-5.02 -61.94,-16.12 -125.84,-12.22 -7.96,0.49 -14.26,1.77 -7.95,1.61 -14.22,2.28 -9.24,0.99 -19.81,2.78 -19.36,3.29 -28.17,5.02 a 0.38,0.39 59.3 0 0 -0.18,0.68 l 11,9.09 q 0.4,0.33 0.86,0.09 5.48,-2.79 19.89,-5.22 71.69,-12.13 142.38,-0.17 8.2,1.38 18.59,3.18 4.02,0.69 5.87,1.92 c 4.8,3.18 3.2,10.11 -2.25,11.37 q -1.11,0.25 -4.19,-0.38 -83.66,-17.29 -167.81,-1.83 a 0.41,0.41 0 0 0 -0.18,0.72 q 4.11,3.24 6.2,5.19 c 5.37,5 -1.41,14.3 -7.33,10.75 q -2.22,-1.34 -9.56,-7.43 c -8.91,-7.41 -19.17,-15 -27.46,-20.99 q -9.85,-7.13 -23.08,-14.19 -12.22,-6.52 -26.1,-9.84 c -6.28,-1.49 -12.57,-1.64 -18.97,-1.37 a 0.41,0.42 85.5 0 0 -0.4,0.46 z m 538.06,149.75 q 4.87,-0.98 7.6,2.83 0.69,0.96 3.49,9.54 0.39,1.21 3.6,13.55 a 0.53,0.54 61.7 0 0 0.88,0.26 q 8.54,-7.66 7.79,-18.19 c -0.5,-6.9 -4.94,-13.81 -10.89,-16.73 q -12.84,-6.3 -23.98,0.24 c -12.83,7.53 -13.42,24.31 -2.58,33.72 q 6.03,5.24 14.54,5.69 a 0.85,0.85 0 0 0 0.89,-0.99 c -1.25,-7.28 -3.99,-13.86 -6.02,-21.22 q -0.92,-3.33 0.11,-5.19 1.6,-2.92 4.57,-3.51 z m -253.05,338.49 9.99,0.01 32.61,0.01 a 0.95,0.95 0 0 0 0.94,-0.81 q 3.37,-24.33 10.48,-47.77 4.13,-13.64 10.59,-24.23 0.59,-0.98 -0.43,-0.47 -18.88,9.54 -40.87,15.2 -19.85,5.11 -30.31,7.31 a 0.37,0.38 81.4 0 0 -0.3,0.4 c 1.05,10.73 1.82,22.31 1.66,33.86 q -0.08,6.36 0.15,15.34 0.04,1.31 1.35,1.28 z m -176.97,-50.48 -18.62,-3.99 q -2.32,-0.5 -2.95,1.77 -4.36,15.69 -5.17,32.43 a 0.29,0.29 0 0 0 0.29,0.3 h 26.84 a 0.55,0.55 0 0 0 0.55,-0.55 v -28.8 a 1.19,1.19 0 0 0 -0.94,-1.16 z m 157.7646,3.5749 a 1.12,1.12 0 0 0 -1.1239,-1.116 l -0.7,0.002 a 1.12,1.12 0 0 0 -1.116,1.1239 l 0.0907,25.9799 a 1.12,1.12 0 0 0 1.1239,1.116 l 0.7,-0.002 a 1.12,1.12 0 0 0 1.116,-1.1239 z"
       id="path62" />
    <path
       fill="#227247"
       d="m 169.03015,123.7311 q -0.28,11.54 1.82,22.76 2.13,11.41 5.37,21.41 0.39,1.2 -0.73,1.79 -11.35,6 -22.14,13.97 a 0.47,0.47 0 0 1 -0.74,-0.29 q -1.71,-8.8 -3.71,-17.42 -2.58,-11.16 -3.21,-17.52 -1.52,-15.33 -1.41,-31.12 a 1.62,1.62 0 0 1 1.61,-1.61 q 12.14,-0.1 24.45,3.2 a 0.71,0.71 0 0 1 0.33,1.18 c -0.84,0.87 -1.61,2.27 -1.64,3.65 z"
       id="path63" />
    <path
       fill="#8adb62"
       d="m 540.86015,178.8811 q 2.99,22.05 -0.1,44.02 -2.93,20.89 -10.01,40.42 -15.55,42.95 -45.2,79.55 -17.84,22.02 -37.75,38.99 -38.56,32.86 -85.59,54.15 -28.87,13.07 -62.33,22.42 -67.91,18.96 -134.93,16.08 -12.62,-0.54 -24.81,-2.84 -12.86,-2.43 -23.72,-8.92 c -7.84,-4.69 -16.839998,-12.43 -23.139998,-20.64 q -2.58,-3.35 -5.59,-6.57 a 0.49,0.49 0 0 1 0.21,-0.8 q 4.24,-1.33 8.99,-3.35 14.789998,-6.3 18.569998,-22.35 1.47,-6.26 1.49,-12.62 1.81,-5.6 -1.27,-9.16 c -2.33,-2.69 -6.19,-3.14 -8.95,-0.86 q -0.92,0.76 -2.04,2.69 -0.98,1.69 -1.76,2.91 -26.029998,13.49 -54.569998,10.09 -14.37,-1.71 -26.51,-8.43 0.43,-2 0.26,-4.02 -0.32,-3.94 -0.32,-3.97 -0.14,-15.22 0.39,-30.58 c 0.31,-9.29 0.2,-17.57 0.31,-25.6 q 0.09,-7.18 0.95,-9.7 4.23,-12.52 17.15,-13.19 10.36,-0.54 16.76,-0.71 8.2,-0.21 12.8,-1.44 11.22,-3 17.85,-13.11 3.68,-5.62 10.01,-16.54 12.119998,-20.91 30.629998,-40.58 21.23,-22.57 47.74,-40.51 1.53,-1.04 5.17,-3.05 a 1.23,1.24 67.6 0 1 1.79,0.74 q 0.84,2.99 2.13,2.61 2.15,3.88 4.32,8.3 4.25,8.67 9.12,15.31 3.05,4.17 9.32,11.93 2.9,3.59 6.68,3.6 1.37,1.76 4.56,1.84 c 4.56,0.11 7.9,0.39 10.77,-1.59 1.94,-1.33 0.99,-4.14 -0.25,-5.44 -9.96,-10.36 -17.67,-21.78 -24.12,-34.59 q -11.18,-22.21 -18.85,-45.56 -1.4,-4.24 -4.61,-10.21 l -0.82,-6.83 a 0.41,0.42 85.5 0 1 0.4,-0.46 c 6.4,-0.27 12.69,-0.12 18.97,1.37 q 13.88,3.32 26.1,9.84 13.23,7.06 23.08,14.19 c 8.29,5.99 18.55,13.58 27.46,20.99 q 7.34,6.09 9.56,7.43 c 5.92,3.55 12.7,-5.75 7.33,-10.75 q -2.09,-1.95 -6.2,-5.19 a 0.41,0.41 0 0 1 0.18,-0.72 q 84.15,-15.46 167.81,1.83 3.08,0.63 4.19,0.38 c 5.45,-1.26 7.05,-8.19 2.25,-11.37 q -1.85,-1.23 -5.87,-1.92 -10.39,-1.8 -18.59,-3.18 -70.69,-11.96 -142.38,0.17 -14.41,2.43 -19.89,5.22 -0.46,0.24 -0.86,-0.09 l -11,-9.09 a 0.38,0.39 59.3 0 1 0.18,-0.68 q 8.81,-1.73 28.17,-5.02 10.57,-1.79 19.81,-2.78 6.27,-0.67 14.22,-2.28 6.3,-1.28 14.26,-1.77 63.9,-3.9 125.84,12.22 7.36,1.92 16.96,5.02 12.88,4.16 16.67,5.89 c 5.82,2.65 9.53,4.61 15.06,6.48 q 6.32,2.14 13.23,5.76 6.25,3.27 12.33,6.62 z m -404.549,155.4749 a 27.66,16.79 88.9 0 0 16.2559,-27.9772 27.66,16.79 88.9 0 0 -17.3179,-27.3326 27.66,16.79 88.9 0 0 -16.2559,27.9772 27.66,16.79 88.9 0 0 17.3179,27.3326 z m 47.989,43.7351 a 28,28 0 0 0 -28,-28 28,28 0 0 0 -28,28 28,28 0 0 0 28,28 28,28 0 0 0 28,-28 z"
       id="path64" />
    <path
       fill="#50a455"
       d="m 214.91015,233.1511 q 2.74,-1.23 5.16,-4 1.38,-1.58 1.39,-3.19 0.01,-1.57 -2.61,-4.44 -13.84,-15.16 -21.78,-33.02 -10.79,-24.29 -14.66,-50.9 3.21,5.97 4.61,10.21 7.67,23.35 18.85,45.56 c 6.45,12.81 14.16,24.23 24.12,34.59 1.24,1.3 2.19,4.11 0.25,5.44 -2.87,1.98 -6.21,1.7 -10.77,1.59 q -3.19,-0.08 -4.56,-1.84 z"
       id="path65" />
    <path
       fill="#50a455"
       d="m 567.09015,194.9911 q 2.14,4.09 5.52,7.11 4.03,3.58 4.13,3.68 18.68,18.7 33.51,40.51 20.86,30.7 29.48,67.35 7.42,31.53 2.5,63.81 -1.61,10.52 -4.34,19.48 -9.3,30.51 -28.32,54.48 -27.35,34.47 -65.28,55.7 -25.65,14.36 -51.6,23.36 -43.84,15.2 -93.86,20.7 -9.66,1.06 -19.92,1.54 -57.82,2.71 -113.34,-7.22 -4.29,-0.76 -9.98,-2.38 a 0.78,0.78 0 0 0 -0.99,0.79 l 1.17,25.19 q -6.77,26.74 -6.17,55.77 0.04,1.77 -1.74,1.77 l -31.01,-0.02 q -0.23,-5.12 -0.55,-19.94 -0.44,-20.02 -3,-44.69 -1.22,-11.78 -1.69,-14.56 -1.21,-7.25 -3.69,-14.23 -0.75,-2.14 -2.88,-3.71 a 2.24,2.21 31.9 0 0 -3.3,0.75 q -0.49,0.94 -0.4,2.94 0.39,8.86 1.19,17.69 1.13,12.57 1.46,17.65 1.94,29.05 4.39,58.06 l -8.57,-0.04 a 0.83,0.82 1 0 1 -0.82,-0.84 c 0.39,-17.74 0.53,-35.07 -1.55,-52.57 -1.5,-12.57 -3.68,-22.73 -8.8,-33.71 q -3.89,-8.32 -12.52,-13.75 -12.45,-7.84 -23.05,-15.17 -8.52,-5.89 -15.9,-12 -19.48,-16.1 -36.08,-35.61 -3.259998,-3.83 -9.199998,-11.68 c -7.22,-9.54 -10.67,-15.18 -18.14,-20.68 q -1.65,-1.22 0.4,-1.16 27.729998,0.73 38.979998,-24.58 1.85,-4.16 3.82,-8.36 -0.02,6.36 -1.49,12.62 -3.78,16.05 -18.569998,22.35 -4.75,2.02 -8.99,3.35 a 0.49,0.49 0 0 0 -0.21,0.8 q 3.01,3.22 5.59,6.57 c 6.3,8.21 15.299998,15.95 23.139998,20.64 q 10.86,6.49 23.72,8.92 12.19,2.3 24.81,2.84 67.02,2.88 134.93,-16.08 33.46,-9.35 62.33,-22.42 47.03,-21.29 85.59,-54.15 19.91,-16.97 37.75,-38.99 29.65,-36.6 45.2,-79.55 7.08,-19.53 10.01,-40.42 3.09,-21.97 0.1,-44.02 4.59,1.91 8.77,4.52 8.89,5.54 17.46,11.59 z"
       id="path66" />
    <path
       fill="#cefe93"
       d="m 185.47015,194.0111 q -1.29,0.38 -2.13,-2.61 a 1.23,1.24 67.6 0 0 -1.79,-0.74 q -3.64,2.01 -5.17,3.05 -26.51,17.94 -47.74,40.51 -18.51,19.67 -30.629998,40.58 -6.33,10.92 -10.01,16.54 -6.63,10.11 -17.85,13.11 -4.6,1.23 -12.8,1.44 -6.4,0.17 -16.76,0.71 -12.92,0.67 -17.15,13.19 -0.86,2.52 -0.95,9.7 c -0.11,8.03 0,16.31 -0.31,25.6 q -0.53,15.36 -0.39,30.58 0,0.03 0.32,3.97 0.17,2.02 -0.26,4.02 l -7.06,-5.5 q -0.01,-33.43 0.04,-66.94 0.02,-9.45 0.36,-11.05 1.4,-6.53 7.59,-9.12 2.81,-1.18 7.81,-1.31 7.79,-0.21 8.01,-0.22 21.98,-0.82 36.79,-16.07 2.78,-2.87 8.84,-10.88 8.81,-11.66 16.699998,-21.8 33.05,-42.46 78.99,-69.25 a 0.67,0.67 0 0 1 0.97,0.34 z"
       id="path67" />
    <path
       fill="#227247"
       d="m 255.77015,569.0911 -1.17,-25.19 a 0.78,0.78 0 0 1 0.99,-0.79 q 5.69,1.62 9.98,2.38 55.52,9.93 113.34,7.22 10.26,-0.48 19.92,-1.54 50.02,-5.5 93.86,-20.7 25.95,-9 51.6,-23.36 37.93,-21.23 65.28,-55.7 19.02,-23.97 28.32,-54.48 2.73,-8.96 4.34,-19.48 4.92,-32.28 -2.5,-63.81 -8.62,-36.65 -29.48,-67.35 -14.83,-21.81 -33.51,-40.51 -0.1,-0.1 -4.13,-3.68 -3.38,-3.02 -5.52,-7.11 c 6.69,4.27 13.35,9.92 18.52,14.2 q 21.72,18.01 38.27,40.73 13.53,18.57 24.08,45.82 1.47,3.81 3.6,11.44 c 1,3.55 3.06,10.32 4.17,15.41 q 4.92,22.54 3.89,46.59 -2.81,65.53 -46.52,112.46 -6.29,6.75 -14.48,13.55 -26.39,21.93 -56.9,37 -3.95,1.96 -17.51,8.19 c -12.66,5.82 -24.46,10.58 -36.84,14.02 q -19.88,5.52 -40,9.26 -28.14,5.23 -56.24,5.8 c -33.45,0.69 -66.44,-1.32 -98.6,-7.62 q -7.97,-1.56 -20.17,-3.95 -5.91,-1.16 -10.06,2.46 -2.59,2.27 -6.53,8.74 z"
       id="path68" />
    <path
       fill="#f7f7f7"
       d="m 720.47015,287.3511 q -2.97,0.59 -4.57,3.51 -1.03,1.86 -0.11,5.19 c 2.03,7.36 4.77,13.94 6.02,21.22 a 0.85,0.85 0 0 1 -0.89,0.99 q -8.51,-0.45 -14.54,-5.69 c -10.84,-9.41 -10.25,-26.19 2.58,-33.72 q 11.14,-6.54 23.98,-0.24 c 5.95,2.92 10.39,9.83 10.89,16.73 q 0.75,10.53 -7.79,18.19 a 0.53,0.54 61.7 0 1 -0.88,-0.26 q -3.21,-12.34 -3.6,-13.55 -2.8,-8.58 -3.49,-9.54 -2.73,-3.81 -7.6,-2.83 z"
       id="path69" />
    <path
       fill="#00123f"
       d="m 136.31115,334.356 a 27.66,16.79 88.9 0 1 -17.3179,-27.3326 27.66,16.79 88.9 0 1 16.2559,-27.9772 27.66,16.79 88.9 0 1 17.3179,27.3326 27.66,16.79 88.9 0 1 -16.2559,27.9772 z m -10.7061,-36.9722 a 3.18,5.72 8.8 0 0 4.0177,-5.1662 3.18,5.72 8.8 0 0 -2.2675,-6.1392 3.18,5.72 8.8 0 0 -4.0177,5.1662 3.18,5.72 8.8 0 0 2.2675,6.1392 z"
       id="path70" />
    <ellipse
       fill="#f7f7f7"
       cx="268.9473"
       cy="-169.62201"
       transform="rotate(98.8)"
       rx="5.7199998"
       ry="3.1800001"
       id="ellipse70" />
    <circle
       fill="#ffa688"
       cx="156.30017"
       cy="378.09109"
       r="28"
       id="circle70" />
    <path
       fill="#50a455"
       d="m 21.850152,393.6611 q 12.14,6.72 26.51,8.43 28.54,3.4 54.569998,-10.09 c -1.92,10 -7.789998,18.8 -17.299998,22.48 q -5.15,1.99 -14.4,1.67 -23.61,-0.82 -44.26,-11.3 -6.14,-3.12 -8.56,-6.21 -3.43,-4.37 -3.62,-10.48 z"
       id="path71" />
    <path
       fill="#cefe93"
       d="m 216.85015,626.6111 -8.47,-0.04 q -2.45,-29.01 -4.39,-58.06 -0.33,-5.08 -1.46,-17.65 -0.8,-8.83 -1.19,-17.69 -0.09,-2 0.4,-2.94 a 2.24,2.21 31.9 0 1 3.3,-0.75 q 2.13,1.57 2.88,3.71 2.48,6.98 3.69,14.23 0.47,2.78 1.69,14.56 2.56,24.67 3,44.69 0.32,14.82 0.55,19.94 z"
       id="path72" />
    <path
       fill="#227247"
       d="m 477.41015,625.8511 2.17,-51.83 q 0.06,-1.42 -1.26,-0.88 -3.07,1.24 -7.79,1.38 -0.5,0.01 -0.77,0.43 -1.05,1.7 -1.19,3.97 -0.7,10.99 -0.82,28.05 -0.01,2.45 -0.34,9.42 -0.22,4.78 0.01,9.45 l -4.14,0.13 q -1.31,0.03 -1.35,-1.28 -0.23,-8.98 -0.15,-15.34 c 0.16,-11.55 -0.61,-23.13 -1.66,-33.86 a 0.37,0.38 81.4 0 1 0.3,-0.4 q 10.46,-2.2 30.31,-7.31 21.99,-5.66 40.87,-15.2 1.02,-0.51 0.43,0.47 -6.46,10.59 -10.59,24.23 -7.11,23.44 -10.48,47.77 a 0.95,0.95 0 0 1 -0.94,0.81 z"
       id="path73" />
    <path
       fill="#227247"
       d="m 271.83015,571.3711 18.62,3.99 a 1.19,1.19 0 0 1 0.94,1.16 v 28.8 a 0.55,0.55 0 0 1 -0.55,0.55 h -26.84 a 0.29,0.29 0 0 1 -0.29,-0.3 q 0.81,-16.74 5.17,-32.43 0.63,-2.27 2.95,-1.77 z"
       id="path74" />
    <path
       fill="#50a455"
       d="m 477.41015,625.8511 -9.99,-0.01 q -0.23,-4.67 -0.01,-9.45 0.33,-6.97 0.34,-9.42 0.12,-17.06 0.82,-28.05 0.14,-2.27 1.19,-3.97 0.27,-0.42 0.77,-0.43 4.72,-0.14 7.79,-1.38 1.32,-0.54 1.26,0.88 z"
       id="path75" />
    <rect
       fill="#227247"
       x="443.25119"
       y="579.37708"
       transform="rotate(-0.2)"
       width="2.9400001"
       height="28.219999"
       rx="1.12"
       id="rect75" />
  </g>
</svg>
